<?xml version="1.0" encoding="UTF-8" standalone="no"?>
<!-- Created with Inkscape (http://www.inkscape.org/) -->

<svg
   xmlns:dc="http://purl.org/dc/elements/1.1/"
   xmlns:cc="http://creativecommons.org/ns#"
   xmlns:rdf="http://www.w3.org/1999/02/22-rdf-syntax-ns#"
   xmlns:svg="http://www.w3.org/2000/svg"
   xmlns="http://www.w3.org/2000/svg"
   xmlns:sodipodi="http://sodipodi.sourceforge.net/DTD/sodipodi-0.dtd"
   xmlns:inkscape="http://www.inkscape.org/namespaces/inkscape"
   width="210mm"
   height="297mm"
   viewBox="0 0 744.09448819 1052.3622047"
   id="svg2"
   version="1.1"
   inkscape:version="0.91 r13725"
   sodipodi:docname="keygen.svg">
  <defs
     id="defs4" />
  <sodipodi:namedview
     id="base"
     pagecolor="#ffffff"
     bordercolor="#666666"
     borderopacity="1.0"
     inkscape:pageopacity="0.0"
     inkscape:pageshadow="2"
     inkscape:zoom="0.98994949"
     inkscape:cx="370.5242"
     inkscape:cy="652.21619"
     inkscape:document-units="px"
     inkscape:current-layer="layer1"
     showgrid="false"
     inkscape:window-width="944"
     inkscape:window-height="1002"
     inkscape:window-x="960"
     inkscape:window-y="0"
     inkscape:window-maximized="0" />
  <metadata
     id="metadata7">
    <rdf:RDF>
      <cc:Work
         rdf:about="">
        <dc:format>image/svg+xml</dc:format>
        <dc:type
           rdf:resource="http://purl.org/dc/dcmitype/StillImage" />
        <dc:title></dc:title>
      </cc:Work>
    </rdf:RDF>
  </metadata>
  <g
     inkscape:label="Layer 1"
     inkscape:groupmode="layer"
     id="layer1">
    <rect
       style="fill:#ff0000;fill-opacity:1"
       id="rect4136"
       width="688.92401"
       height="1000.051"
       x="40.406101"
       y="42.20966" />
    <rect
       style="fill:#000080;fill-opacity:1"
       id="rect4138"
       width="116.16754"
       height="98.994949"
       x="69.700523"
       y="63.422863" />
    <rect
       style="fill:#000080;fill-opacity:1"
       id="rect4138-4"
       width="116.16754"
       height="98.994949"
       x="204.55589"
       y="63.422863" />
    <rect
       style="fill:#000080;fill-opacity:1"
       id="rect4138-3"
       width="116.16754"
       height="98.994949"
       x="473.25647"
       y="62.412708" />
    <rect
       style="fill:#000080;fill-opacity:1"
       id="rect4138-0"
       width="116.16754"
       height="98.994949"
       x="339.91635"
       y="63.422867" />
    <text
       xml:space="preserve"
       style="font-style:normal;font-weight:normal;font-size:25px;line-height:125%;font-family:sans-serif;letter-spacing:0px;word-spacing:0px;fill:#000000;fill-opacity:1;stroke:none;stroke-width:1px;stroke-linecap:butt;stroke-linejoin:miter;stroke-opacity:1"
       x="78.791901"
       y="121.00156"
       id="text4169"
       sodipodi:linespacing="125%"><tspan
         sodipodi:role="line"
         id="tspan4171"
         x="78.791901"
         y="121.00156"
         style="fill:#ffff00">keyblob</tspan></text>
    <text
       xml:space="preserve"
       style="font-style:normal;font-weight:normal;font-size:19.42665863px;line-height:125%;font-family:sans-serif;letter-spacing:0px;word-spacing:0px;fill:#000000;fill-opacity:1;stroke:none;stroke-width:1px;stroke-linecap:butt;stroke-linejoin:miter;stroke-opacity:1"
       x="212.33372"
       y="110.29713"
       id="text4173"
       sodipodi:linespacing="125%"
       transform="scale(0.99573645,1.0042818)"><tspan
         sodipodi:role="line"
         id="tspan4175"
         x="212.33372"
         y="110.29713"
         style="fill:#ffff00">hardcoded</tspan><tspan
         sodipodi:role="line"
         x="212.33372"
         y="134.58044"
         id="tspan4177"
         style="fill:#ffff00">seed</tspan></text>
    <text
       xml:space="preserve"
       style="font-style:normal;font-weight:normal;font-size:25px;line-height:125%;font-family:sans-serif;letter-spacing:0px;word-spacing:0px;fill:#000000;fill-opacity:1;stroke:none;stroke-width:1px;stroke-linecap:butt;stroke-linejoin:miter;stroke-opacity:1"
       x="474.77167"
       y="103.82896"
       id="text4179"
       sodipodi:linespacing="125%"><tspan
         sodipodi:role="line"
         id="tspan4181"
         x="474.77167"
         y="103.82896"
         style="fill:#ffff00">SBK</tspan><tspan
         sodipodi:role="line"
         x="474.77167"
         y="135.07896"
         style="fill:#ffff00"
         id="tspan4183">(keyslot)</tspan></text>
    <text
       xml:space="preserve"
       style="font-style:normal;font-weight:normal;font-size:25px;line-height:125%;font-family:sans-serif;letter-spacing:0px;word-spacing:0px;fill:#000000;fill-opacity:1;stroke:none;stroke-width:1px;stroke-linecap:butt;stroke-linejoin:miter;stroke-opacity:1"
       x="362.64478"
       y="122.0117"
       id="text4185"
       sodipodi:linespacing="125%"><tspan
         sodipodi:role="line"
         id="tspan4187"
         x="362.64478"
         y="122.0117"
         style="fill:#ffff00">TSEC</tspan></text>
    <rect
       style="fill:#0000ff;fill-opacity:1"
       id="rect4189"
       width="217.1828"
       height="55.558392"
       x="230.31476"
       y="230.09805" />
    <rect
       style="fill:#0000ff;fill-opacity:1"
       id="rect4189-0"
       width="217.1828"
       height="55.558392"
       x="230.81985"
       y="351.82141" />
    <text
       xml:space="preserve"
       style="font-style:normal;font-weight:normal;font-size:25px;line-height:125%;font-family:sans-serif;letter-spacing:0px;word-spacing:0px;fill:#000000;fill-opacity:1;stroke:none;stroke-width:1px;stroke-linecap:butt;stroke-linejoin:miter;stroke-opacity:1"
       x="257.5889"
       y="261.41275"
       id="text4216"
       sodipodi:linespacing="125%"><tspan
         sodipodi:role="line"
         id="tspan4218"
         x="257.5889"
         y="261.41275"
         style="fill:#ffff00">AES-EBC</tspan></text>
    <text
       xml:space="preserve"
       style="font-style:normal;font-weight:normal;font-size:25px;line-height:125%;font-family:sans-serif;letter-spacing:0px;word-spacing:0px;fill:#000000;fill-opacity:1;stroke:none;stroke-width:1px;stroke-linecap:butt;stroke-linejoin:miter;stroke-opacity:1"
       x="262.63965"
       y="395.76306"
       id="text4220"
       sodipodi:linespacing="125%"><tspan
         sodipodi:role="line"
         id="tspan4222"
         x="262.63965"
         y="395.76306"
         style="fill:#ffff00">AES-ECB</tspan></text>
    <path
       style="fill:none;fill-rule:evenodd;stroke:#000000;stroke-width:1px;stroke-linecap:butt;stroke-linejoin:miter;stroke-opacity:1"
       d="m 218.19295,173.52949 c 1.81325,4.59631 -3.87466,3.70871 -5.05076,6.06092 -0.47619,0.95238 -0.46232,2.1174 -1.01016,3.03045 -0.48999,0.81666 -1.34687,1.34687 -2.0203,2.02031 -1.4206,1.4206 -1.88823,1.75616 -3.03046,4.04061 -0.15058,0.30117 0.10648,0.69071 0,1.01015 -0.47619,1.42857 -1.46105,2.64247 -2.0203,4.04061 -0.39546,0.98864 -0.53397,2.07808 -1.01016,3.03046 -0.21295,0.42592 -0.79719,0.58423 -1.01015,1.01015 -0.47619,0.95238 -0.59071,2.05176 -1.01015,3.03046 -0.59318,1.38409 -1.60662,2.5927 -2.02031,4.04061 -0.27751,0.97129 0.19811,2.03992 0,3.03046 -0.14766,0.7383 -0.67343,1.34687 -1.01015,2.0203 -0.67343,1.34687 -1.54411,2.61204 -2.0203,4.04061 -0.21296,0.63888 0.13207,1.35995 0,2.02031 -0.20883,1.04411 -0.75191,1.99745 -1.01016,3.03045 -0.0817,0.32667 0,0.67344 0,1.01016 0,1.01015 0,2.0203 0,3.03045 0,2.02031 0,4.04062 0,6.06092 0,1.34687 0,2.69374 0,4.04061 0,0.33672 -0.10648,0.69071 0,1.01015 0.2381,0.71429 0.77206,1.30602 1.01016,2.02031 0.10648,0.31944 -0.10648,0.69071 0,1.01015 0.23809,0.71429 0.77205,1.30602 1.01015,2.02031 0.10648,0.31943 -0.10648,0.69071 0,1.01015 0.23809,0.71428 0.77206,1.30602 1.01015,2.0203 0.10648,0.31944 -0.15058,0.70899 0,1.01016 0.21296,0.42591 0.7972,0.58423 1.01015,1.01015 0.53895,1.07789 -0.53894,0.94241 0,2.0203 0.0967,0.19337 3.84725,3.94393 4.04061,4.04061 0.30117,0.15059 0.70899,-0.15058 1.01016,0 4.20401,2.10201 -1.07989,-0.0697 1.01015,2.02031 0.47619,0.47619 1.54411,-0.47619 2.0203,0 0.2381,0.23809 -0.23809,0.77206 0,1.01015 0.2381,0.2381 0.70899,-0.15058 1.01016,0 0.42591,0.21296 0.58423,0.7972 1.01015,1.01015 0.30117,0.15059 0.70898,-0.15058 1.01015,0 0.42592,0.21296 0.58424,0.7972 1.01015,1.01016 0.30117,0.15058 0.70899,-0.15059 1.01016,0 4.20401,2.102 -1.07989,-0.0697 1.01015,2.0203 0.5324,0.5324 1.39383,0.59251 2.0203,1.01015 3.35026,3.35026 -0.95238,-0.47619 2.02031,1.01016 0.42592,0.21296 0.58423,0.79719 1.01015,1.01015 0.30117,0.15058 0.68349,-0.0817 1.01015,0 10.20619,2.55155 -0.72951,-0.36476 4.04062,2.0203 0.40051,0.20026 2.82394,-0.20651 3.03045,0 0.2381,0.2381 0,0.67344 0,1.01016"
       id="path4224"
       inkscape:connector-curvature="0" />
    <path
       style="fill:none;fill-rule:evenodd;stroke:#000000;stroke-width:1px;stroke-linecap:butt;stroke-linejoin:miter;stroke-opacity:1"
       d="m 340.42141,291.71734 c -0.61836,0.15908 0.37015,5.9606 0,7.07107 -0.2381,0.71428 -0.77206,1.30602 -1.01015,2.0203 -0.23161,0.69482 0.298,2.43445 0,3.03046 -0.21296,0.42592 -0.85957,0.5584 -1.01016,1.01015 -0.21296,0.63888 0,1.34687 0,2.02031 0,0.33671 0.15059,0.70898 0,1.01015 -0.21296,0.42592 -0.79719,0.58423 -1.01015,1.01015 -0.30669,0.61339 0.30669,5.44753 0,6.06092 -0.21296,0.42591 -0.79719,0.58423 -1.01015,1.01015 -0.15059,0.30117 0,0.67343 0,1.01015 0,0.33672 0,0.67344 0,1.01015 0,2.02031 0,4.04061 0,6.06092 0,2.0203 0,4.04061 0,6.06091 0,0.33672 0,0.67344 0,1.01016 0,0.33671 -0.15059,0.70898 0,1.01015 0.21296,0.42592 0.79719,0.58423 1.01015,1.01015 0.30669,0.61339 -0.30669,5.44753 0,6.06092 0.21296,0.42592 0.79719,0.58423 1.01015,1.01015 0.15371,0.30742 0,2.57553 0,3.03046"
       id="path4230"
       inkscape:connector-curvature="0" />
    <path
       style="fill:none;fill-rule:evenodd;stroke:#000000;stroke-width:1px;stroke-linecap:butt;stroke-linejoin:miter;stroke-opacity:1"
       d="m 447.49758,168.47873 c 1.68359,1.01015 3.29466,2.1524 5.05076,3.03046 0.95238,0.47619 2.07808,0.53396 3.03046,1.01015 0.61245,0.30623 3.60799,3.71614 4.04061,4.04061 0.60234,0.45175 1.34687,0.67343 2.0203,1.01015 0.67344,0.67344 1.27662,1.42536 2.02031,2.02031 0.16179,0.12943 4.71533,3.03431 5.05076,4.04061 0.21296,0.63887 0,1.34687 0,2.0203 0.67344,0.67344 1.49202,1.22788 2.02031,2.02031 0.18677,0.28016 -0.0817,0.68348 0,1.01015 0.25825,1.033 0.80133,1.98634 1.01015,3.03046 0.13207,0.66035 -0.21296,1.38142 0,2.0203 0.15058,0.45176 0.79719,0.58424 1.01015,1.01015 1.01861,2.03723 0.69634,3.28548 2.02031,5.05077 0.57142,0.7619 1.59438,1.16847 2.0203,2.0203 0.60234,1.20468 -0.32666,2.73396 0,4.04061 0.18261,0.73044 0.77206,1.30602 1.01015,2.02031 0.31944,0.95831 -0.31943,2.07214 0,3.03045 0.15059,0.45176 0.7972,0.58424 1.01016,1.01016 0.30117,0.60234 -0.47619,1.54411 0,2.0203 0.23809,0.2381 0.85956,-0.30117 1.01015,0 0.55622,1.11244 -0.39483,2.85612 0,4.04061 0.23809,0.71429 0.86249,1.28201 1.01015,2.02031 0.19811,0.99053 0,2.0203 0,3.03045 0,2.35703 0,4.71405 0,7.07107 0,2.35703 0,4.71405 0,7.07107 0,0.45493 0.15371,2.72303 0,3.03046 -0.21296,0.42592 -0.79719,0.58423 -1.01015,1.01015 -0.30117,0.60234 0.47619,1.54412 0,2.02031 -0.2381,0.23809 -0.85957,-0.30117 -1.01015,0 -0.30117,0.60233 0.37355,1.45997 0,2.0203 -0.41765,0.62647 -1.48791,0.47776 -2.02031,1.01015 -0.23809,0.2381 0.2381,0.77206 0,1.01016 -0.23809,0.23809 -0.67343,0 -1.01015,0 -0.33672,1.01015 -0.41951,2.14449 -1.01015,3.03045 -0.18678,0.28017 -0.77206,-0.23809 -1.01016,0 -0.53239,0.5324 -0.5925,1.39384 -1.01015,2.02031 -0.26414,0.39621 -0.79719,0.58423 -1.01015,1.01015 -0.15059,0.30117 0.23809,0.77206 0,1.01015 -0.2381,0.2381 -0.77206,-0.23809 -1.01015,0 -0.5324,0.5324 -0.47776,1.48791 -1.01016,2.02031 -0.23809,0.23809 -0.70898,-0.15059 -1.01015,0 -0.42592,0.21296 -0.58423,0.79719 -1.01015,1.01015 -0.30117,0.15059 -0.77206,-0.23809 -1.01015,0 -0.2381,0.2381 0.23809,0.77206 0,1.01015 -1.34687,1.34687 -1.01016,-1.68358 -1.01016,1.01016"
       id="path4234"
       inkscape:connector-curvature="0" />
    <path
       style="fill:none;fill-rule:evenodd;stroke:#000000;stroke-width:1px;stroke-linecap:butt;stroke-linejoin:miter;stroke-opacity:1"
       d="m 539.42146,170.49903 c 0,1.34687 0,2.69374 0,4.04061 -0.33672,0.33672 -0.89466,0.54818 -1.01015,1.01016 -0.245,0.97999 0.16606,2.03404 0,3.03045 -0.17505,1.05031 -0.89257,1.97218 -1.01016,3.03046 -0.2231,2.00795 0.22311,4.05297 0,6.06092 -0.11758,1.05828 -0.77916,1.99102 -1.01015,3.03045 -0.44431,1.9994 -0.75611,4.02856 -1.01015,6.06092 -0.50508,4.04061 1.01015,0 0,6.06091 -0.12378,0.74268 -0.90367,1.27495 -1.01015,2.02031 -0.13834,0.96832 0.29272,7.62776 0,9.09137 -0.14766,0.7383 -0.8625,1.28201 -1.01016,2.02031 -0.1981,0.99053 0,2.0203 0,3.03045 0,3.03046 0,6.06092 0,9.09138 0,6.73435 0,13.4687 0,20.20305 0,2.0203 0,4.04061 0,6.06091 0,2.02031 0.22311,4.05297 0,6.06092 -0.11758,1.05828 -0.77916,1.99102 -1.01015,3.03046 -0.44431,1.9994 -0.56584,4.06151 -1.01015,6.06091 -0.23099,1.03944 -0.9042,1.97095 -1.01015,3.03046 -0.36855,3.68551 0,7.40779 0,11.11168 0,1.01015 0.11155,2.02648 0,3.03046 -0.22619,2.03564 -0.78397,4.02527 -1.01016,6.06091 -0.11155,1.00397 0.11156,2.02648 0,3.03046 -0.22618,2.03564 -0.67343,4.04061 -1.01015,6.06091 -0.67343,4.04061 -1.28753,8.09156 -2.0203,12.12183 -0.30714,1.68924 -0.72789,3.3572 -1.01016,5.05077 -0.45039,2.70234 -1.34942,10.22482 -2.0203,13.13198 -0.55121,2.38856 -1.61731,4.65308 -2.02031,7.07107 -0.27678,1.66068 0,3.36717 0,5.05076 -0.33671,2.35702 -0.54321,4.73635 -1.01015,7.07107 -0.20882,1.04411 -0.77917,1.99102 -1.01015,3.03046 -0.44431,1.9994 -0.56584,4.06151 -1.01015,6.06091 -1.39882,6.29465 -1.05011,-0.65062 -2.02031,8.08122 -0.14874,1.33863 0,2.69374 0,4.04061 0,3.03046 0,6.06092 0,9.09137 0,0.24499 0.0325,2.99798 0,3.03046 -0.23809,0.2381 -0.67343,0 -1.01015,0 -0.33672,0 -0.67344,0 -1.01015,0 -2.69374,0 -5.38748,0 -8.08122,0 -2.35703,0 -4.71405,0 -7.07107,0 -1.01016,0 -2.07215,0.31944 -3.03046,0 -0.45175,-0.15058 -0.54818,-0.89466 -1.01015,-1.01015 -0.97999,-0.245 -2.02031,0 -3.03046,0 -0.67344,0 -1.34687,0 -2.02031,0 -0.33671,0 -0.69071,0.10648 -1.01015,0 -0.71428,-0.2381 -1.28986,-0.82754 -2.0203,-1.01015 -0.65333,-0.16333 -1.35995,0.13207 -2.02031,0 -1.04411,-0.20883 -1.98015,-0.8351 -3.03046,-1.01016 -1.40605,-0.23434 -7.04783,0.34447 -8.08122,0 -0.31943,-0.10647 0.2381,-0.77205 0,-1.01015 -0.47619,-0.47619 -1.41796,0.30117 -2.0203,0 -0.42592,-0.21296 -0.58424,-0.79719 -1.01015,-1.01015 -0.22641,-0.1132 -3.80057,0 -4.04061,0 -2.02031,0 -4.04061,0 -6.06092,0 -0.67343,0 -1.34687,0 -2.0203,0 -0.33672,0 -0.70899,0.15058 -1.01016,0 -2.49649,-1.24825 0.34869,-1.01015 -2.0203,-1.01015"
       id="path4236"
       inkscape:connector-curvature="0" />
  </g>
</svg>
